# xmcd
#
# Track frame offsets: 
#        150
#        11950
#        23556
#        35388
#        50070
#        61343
#        72072
#        84423
#        95538
#        107605
#        117209
#        131147
#        141102
#        152209
#        163349
#        174704
#        185666
#        198418
#        211549
#        224219
#
# Disc length: 3132 seconds
#
# Revision: 1
# Processed by: cddbd v1.5.2PL0 Copyright (c) Steve Scherf et al.
# Submitted via: ExactAudioCopy v0.95b4
#
DISCID=270c3a14
DTITLE=George Jones - 20 Gospel Greats
DYEAR=1994
DGENRE=Country
TTITLE0=Small Time Laboring Man
TTITLE1=Wandering Soul
TTITLE2=Bringin' It Home
TTITLE3=Family Bible
TTITLE4=Old Brush Arbors
TTITLE5=Won't It Be Wonderful There
TTITLE6=I'll Fly Away
TTITLE7=Where We Never Grow Old
TTITLE8=Take The World But Give Me Jesus
TTITLE9=Boat Of Life
TTITLE10=Will There Be Stars In My Crown
TTITLE11=If You Believe
TTITLE12=How Beautiful Heaven Must Be
TTITLE13=Leaning On The Everlasting Arms
TTITLE14=Lord You've Been Mighty Good To Me
TTITLE15=Will The Circle Be Unbroken
TTITLE16=Flowers For Mama
TTITLE17=The Rugged Cross
TTITLE18=The Unclouded Day
TTITLE19=Cup Of Loneliness
EXTD=
EXTT0=
EXTT1=
EXTT2=
EXTT3=
EXTT4=
EXTT5=
EXTT6=
EXTT7=
EXTT8=
EXTT9=
EXTT10=
EXTT11=
EXTT12=
EXTT13=
EXTT14=
EXTT15=
EXTT16=
EXTT17=
EXTT18=
EXTT19=
PLAYORDER=
